<svg width="46" height="58" viewBox="0 0 46 58" fill="none" xmlns="http://www.w3.org/2000/svg">
<path d="M9.5479 37.5145C8.67033 37.6603 7.81401 37.938 6.98645 38.2614C5.97387 38.657 4.9863 39.1249 4.04998 39.6803C3.15116 40.2141 2.27734 40.8317 1.53354 41.5722C0.902239 42.1999 0.319695 42.9683 0.0946778 43.8508C-0.020331 44.3035 -0.0303317 44.7638 0.0634254 45.2203C0.160933 45.7009 0.407201 46.1257 0.702224 46.5048C1.45853 47.4774 2.64862 48.0619 3.75996 48.5045C6.37015 49.5417 9.27662 49.5645 12.0356 49.3718C15.0096 49.1639 17.9598 48.6858 20.9388 48.5489C22.4089 48.4804 23.8815 48.5019 25.3428 48.6858C25.4729 48.7023 25.3016 48.6807 25.2878 48.6782C25.3328 48.6883 25.3828 48.6921 25.4291 48.6985C25.5154 48.7112 25.6016 48.7251 25.6879 48.7391C25.8679 48.7682 26.0466 48.7999 26.2242 48.8354C26.5792 48.9052 26.933 48.9876 27.283 49.0827C27.6255 49.1765 27.9643 49.2818 28.2993 49.4035C28.4668 49.4644 28.6293 49.5328 28.7956 49.5975C28.5743 49.5126 28.8556 49.6254 28.9081 49.6495C28.9856 49.6863 29.0631 49.723 29.1406 49.7624C29.4032 49.8955 29.6569 50.0439 29.8969 50.215C29.9494 50.2531 30.112 50.3888 29.9107 50.2201C29.9569 50.2582 30.0032 50.2949 30.0482 50.3342C30.1357 50.4103 30.2207 50.4915 30.2995 50.5777C30.3382 50.6195 30.3745 50.6627 30.412 50.707C30.5195 50.8338 30.302 50.5473 30.3957 50.6855C30.4532 50.7704 30.5095 50.8567 30.557 50.948C30.5757 50.9847 30.5907 51.0228 30.6095 51.0583C30.4795 50.8123 30.5682 50.9568 30.5945 51.0342C30.6207 51.1153 30.637 51.1965 30.6557 51.2789C30.6795 51.3905 30.6332 51.0557 30.642 51.1686C30.6432 51.1914 30.647 51.213 30.6482 51.2358C30.6507 51.2726 30.652 51.3106 30.652 51.3474C30.652 51.3918 30.6495 51.4362 30.6457 51.4805C30.6445 51.4958 30.642 51.5097 30.642 51.5249C30.6332 51.6378 30.6832 51.2865 30.652 51.4362C30.6345 51.5186 30.617 51.5997 30.5907 51.6796C30.5782 51.7164 30.5645 51.7532 30.5507 51.7899C30.5132 51.8977 30.6382 51.5959 30.5882 51.6986C30.5745 51.7278 30.562 51.757 30.547 51.7861C30.5082 51.8635 30.4645 51.9396 30.4182 52.0118C30.3932 52.0511 30.3657 52.0905 30.3395 52.1285C30.2482 52.2616 30.4745 51.9611 30.3432 52.1234C30.2057 52.2921 30.052 52.448 29.8882 52.5901C29.8507 52.623 29.8119 52.6547 29.7732 52.6877C29.7269 52.7257 29.6282 52.7828 29.8269 52.6471C29.8007 52.6649 29.7769 52.6852 29.7519 52.7042C29.6569 52.7752 29.5594 52.8424 29.4607 52.9083C29.2381 53.0542 29.0069 53.1848 28.7694 53.3027C28.6481 53.3636 28.5256 53.4193 28.4031 53.4751C28.2706 53.5347 28.5756 53.4029 28.4406 53.4587C28.4168 53.4688 28.3931 53.4789 28.3706 53.4878C28.2868 53.5221 28.2031 53.555 28.1181 53.5867C27.8405 53.692 27.558 53.7833 27.2717 53.8632C26.9542 53.9519 26.6342 54.0267 26.3104 54.0889C26.1492 54.1193 25.9879 54.1472 25.8254 54.1713C25.7954 54.1764 25.7654 54.1802 25.7354 54.184C25.5716 54.2081 25.9166 54.1611 25.7516 54.1814C25.6604 54.1928 25.5691 54.2043 25.4766 54.2131C24.7403 54.2917 23.9965 54.3082 23.2577 54.2664C23.0889 54.2562 22.9214 54.2448 22.7539 54.2283C22.6526 54.2182 22.5501 54.2081 22.4489 54.1966C22.3976 54.1903 22.3464 54.184 22.2951 54.1776C22.2401 54.1713 22.0901 54.1802 22.2864 54.1776C22.0963 54.1814 21.8801 54.113 21.6926 54.0825C21.45 54.0419 21.2063 54.0039 20.9638 53.9671C20.0062 53.8238 19.0461 53.7072 18.0835 53.6083C16.2484 53.4193 14.4083 53.2875 12.5731 53.1036C10.728 52.9185 8.8916 52.6103 7.04521 52.9565C6.19264 53.1163 5.18756 53.4181 4.74753 54.2524C4.2975 55.1071 4.51626 56.1443 5.11631 56.8608C5.6476 57.4935 6.46891 57.8232 7.25272 57.983C7.6315 58.0603 8.07028 57.8727 8.16279 57.4593C8.24655 57.0852 8.05153 56.6186 7.6465 56.5362C7.46774 56.4994 7.29022 56.4563 7.11646 56.4017C7.02895 56.3738 6.94395 56.3409 6.85769 56.3104C6.75518 56.2737 7.02395 56.3916 6.87519 56.3181C6.81644 56.2889 6.75643 56.261 6.69768 56.2306C6.62517 56.1913 6.55517 56.1494 6.48641 56.1038C6.46516 56.0898 6.3739 56.0429 6.3664 56.0188C6.39016 56.0378 6.41516 56.0568 6.43891 56.0759C6.42016 56.0606 6.40141 56.0442 6.38266 56.0277C6.3139 55.9668 6.25515 55.8996 6.19139 55.8349C6.08263 55.7259 6.2639 55.9465 6.20889 55.8616C6.17889 55.8172 6.14889 55.7728 6.12139 55.7272C6.09763 55.6878 6.07888 55.646 6.05638 55.6054C5.98012 55.4685 6.10013 55.7348 6.06763 55.6359C6.04138 55.556 6.01388 55.4761 5.99513 55.3937C5.99013 55.3708 5.97262 55.2225 5.98513 55.3582C5.99763 55.4964 5.98513 55.3429 5.98513 55.3227C5.98262 55.277 5.98262 55.2326 5.98513 55.187C5.98513 55.1565 5.98763 55.1274 5.99138 55.0982C5.97387 55.2161 5.97012 55.2466 5.98012 55.187C5.99638 55.1185 6.04388 55.0209 6.04513 54.9524C6.04138 55.0703 5.98763 55.0792 6.03638 54.9917C6.04388 54.979 6.09763 54.9042 6.09513 54.8966C6.07513 54.922 6.05513 54.9473 6.03638 54.9727C6.05638 54.9473 6.07888 54.9232 6.10013 54.8991C6.12764 54.87 6.15889 54.8446 6.18764 54.8154C6.2589 54.7419 6.03513 54.9131 6.17139 54.8281C6.22639 54.7939 6.28015 54.7571 6.33765 54.7267C6.3739 54.7077 6.41141 54.6912 6.44766 54.6709C6.54142 54.6202 6.2739 54.7343 6.42891 54.6772C6.51392 54.6455 6.59892 54.6151 6.68518 54.5885C6.89519 54.5225 7.10896 54.4705 7.32398 54.4262C7.42898 54.4046 7.53399 54.3856 7.64025 54.3691C7.684 54.3628 7.82026 54.3399 7.64525 54.3666C7.70276 54.3577 7.76151 54.3513 7.81901 54.345C8.04153 54.3209 8.26655 54.3044 8.49032 54.2956C9.36538 54.2626 10.2392 54.3399 11.108 54.4426C12.9394 54.6595 14.7783 54.8015 16.6147 54.9676C17.5122 55.0488 18.4098 55.1363 19.3036 55.244C19.5274 55.2707 19.7512 55.2986 19.9737 55.329C20.0024 55.3328 20.2087 55.3582 20.0199 55.3353C20.0612 55.3404 20.1012 55.3467 20.1412 55.3518C20.2837 55.3721 20.425 55.3924 20.5675 55.414C20.9925 55.4774 21.415 55.556 21.8388 55.6168C23.3727 55.84 24.9066 55.8387 26.4367 55.5813C27.6543 55.3759 28.8744 54.9917 29.9444 54.3602C30.8108 53.8505 31.6021 53.1493 31.9733 52.1856C32.3321 51.2548 32.0184 50.2708 31.3821 49.5557C31.017 49.1448 30.5445 48.8189 30.067 48.5577C29.4119 48.2014 28.7043 47.9351 27.993 47.7221C26.5842 47.3011 25.1116 47.102 23.6465 47.0348C20.7025 46.8979 17.7648 47.296 14.8433 47.6093C13.3932 47.7652 11.9381 47.9047 10.4792 47.9478C9.79541 47.9681 9.11036 47.9656 8.42781 47.9288C8.07903 47.9098 7.73151 47.8831 7.38523 47.8451C7.31023 47.8375 7.23647 47.8286 7.16146 47.8185C7.11646 47.8134 7.07271 47.8071 7.0277 47.802C6.87144 47.7817 7.17397 47.8235 7.06896 47.8071C6.90019 47.7817 6.73018 47.7563 6.56267 47.7272C5.91262 47.6131 5.27007 47.4533 4.64502 47.2377C4.49376 47.1857 4.3425 47.1299 4.19374 47.0716C4.12623 47.045 4.05873 47.0171 3.99122 46.9892C3.84246 46.9283 4.15374 47.0615 4.00747 46.9955C3.96497 46.9765 3.92247 46.9588 3.88122 46.9397C3.58369 46.8053 3.29242 46.6595 3.0099 46.4947C2.76863 46.3539 2.54111 46.1967 2.3161 46.0306C2.52611 46.1853 2.35735 46.0623 2.30985 46.0217C2.26109 45.9798 2.21234 45.938 2.16609 45.8949C2.08483 45.8201 2.00607 45.7414 1.93107 45.659C1.89231 45.6172 1.85481 45.5728 1.81856 45.5297C1.80731 45.5157 1.79606 45.5005 1.78356 45.4866C1.7048 45.394 1.90106 45.6501 1.83231 45.5512C1.77231 45.465 1.71355 45.3788 1.66105 45.2875C1.61979 45.2152 1.58854 45.1391 1.55104 45.0656C1.68105 45.3167 1.59104 45.1632 1.56479 45.0884C1.54979 45.044 1.53604 44.9997 1.52354 44.954C1.50103 44.8729 1.48853 44.7904 1.47228 44.7067C1.53479 45.0263 1.47853 44.7346 1.47728 44.6357C1.47728 44.552 1.48228 44.4696 1.48853 44.3872C1.50228 44.23 1.45228 44.6028 1.47978 44.4506C1.48978 44.3973 1.49853 44.3441 1.51104 44.2921C1.52854 44.216 1.54979 44.1399 1.57479 44.0664C1.58979 44.0207 1.60604 43.9764 1.62354 43.9307C1.67855 43.7836 1.53354 44.1336 1.61479 43.9523C1.6923 43.7811 1.78356 43.6175 1.88481 43.4603C1.93857 43.3766 1.99482 43.2967 2.05233 43.2168C2.15108 43.0799 1.92607 43.3766 2.04608 43.2257C2.08358 43.1775 2.12233 43.1306 2.16233 43.0837C2.3011 42.9188 2.44861 42.7603 2.60237 42.6094C2.76488 42.4497 2.93364 42.2962 3.10741 42.1479C3.19741 42.0718 3.28992 41.997 3.38118 41.9234C3.48494 41.8397 3.22867 42.0413 3.33367 41.9602C3.35493 41.9437 3.37743 41.9272 3.39868 41.9095C3.45618 41.8664 3.51369 41.8232 3.57119 41.7801C4.3975 41.1715 5.29257 40.6579 6.21389 40.2141C6.44766 40.1025 6.68268 39.9948 6.91895 39.892C6.96895 39.8705 7.06646 39.8312 6.85144 39.9212C6.88269 39.9085 6.91395 39.8946 6.9452 39.8819C6.99645 39.8603 7.04896 39.8388 7.10146 39.8172C7.22522 39.7665 7.34898 39.7171 7.47274 39.6701C7.91152 39.5015 8.35656 39.3493 8.80909 39.22C9.18162 39.1135 9.55915 39.0222 9.94293 38.9588C10.3255 38.8954 10.5742 38.3932 10.4592 38.0357C10.3255 37.6147 9.95918 37.4435 9.54915 37.512V37.512L9.5479 37.5145Z" fill="#E14828"/>
<circle cx="24" cy="22" r="22" fill="#F45C37"/>
<path fill-rule="evenodd" clip-rule="evenodd" d="M28.7571 3.11419C27.068 2.42699 25.3197 1.89108 23.5384 1.51457L23.5396 1.51226C23.171 1.43487 22.9925 1.01331 23.0698 0.67144C23.154 0.296076 23.5544 0.121676 23.8979 0.194439C24.9091 0.408108 25.9089 0.672595 26.894 0.987901C28.6752 1.55845 30.4121 2.28955 32.0683 3.16617C33.6892 4.02431 35.235 5.02682 36.6819 6.161C36.8286 6.27649 36.9332 6.38853 36.9912 6.56986C37.047 6.74541 37.006 6.93829 36.923 7.09652C36.8456 7.24436 36.6762 7.36678 36.5203 7.41067C36.3736 7.45109 36.1302 7.44185 36.0016 7.34137C35.1906 6.70614 34.3489 6.11133 33.4799 5.56041C32.7076 5.07186 31.9147 4.61681 31.1037 4.19871C30.7022 3.99197 30.2961 3.79331 29.8855 3.6039C29.6762 3.50804 29.4658 3.41333 29.2553 3.32209C29.24 3.31574 29.2249 3.3091 29.2099 3.30246C29.1948 3.29582 29.1797 3.28917 29.1643 3.28282C29.0938 3.25279 29.2098 3.30361 29.2121 3.30361C29.1773 3.29593 29.1406 3.27806 29.1051 3.26082C29.0872 3.25213 29.0697 3.24359 29.0529 3.23662C28.9551 3.19506 28.8562 3.15466 28.7573 3.11425L28.7571 3.11419ZM17.8818 2.66376C18.1173 2.68801 18.3527 2.71573 18.5871 2.74576C18.6043 2.74827 18.6219 2.75077 18.6395 2.75309C18.6718 2.75913 18.7048 2.76315 18.7375 2.76714L18.7375 2.76715C18.7569 2.76952 18.7762 2.77187 18.7952 2.77463C18.9158 2.79196 19.0375 2.81044 19.1581 2.83007C19.6335 2.9063 20.1067 2.99523 20.5776 3.09687C21.5035 3.29668 22.4192 3.545 23.3189 3.84182C23.7773 3.99197 24.2312 4.15482 24.6805 4.32922C24.9011 4.41469 25.1218 4.50362 25.3402 4.59486C25.3565 4.60184 25.373 4.60963 25.3896 4.6175L25.3897 4.61753C25.4254 4.6344 25.4619 4.65161 25.4983 4.66185C25.496 4.66185 25.38 4.61103 25.4505 4.64106L25.4709 4.64977L25.471 4.64979C25.4941 4.65964 25.5176 4.66964 25.5404 4.68033C25.653 4.72884 25.7656 4.7785 25.8771 4.82932C26.7415 5.2197 27.5867 5.65628 28.4068 6.13559C29.3407 6.68073 30.2415 7.28362 31.1037 7.93734C31.2345 8.03666 31.4723 8.04821 31.6224 8.00663C31.7782 7.96275 31.9477 7.84032 32.0251 7.69248C32.2116 7.33444 32.0865 6.98564 31.7839 6.75696C30.2404 5.58698 28.5751 4.58562 26.8246 3.77253C25.0274 2.93748 23.1517 2.28146 21.2226 1.84258C20.1204 1.59195 19.0034 1.41408 17.8807 1.29628C17.5292 1.25932 17.1925 1.63699 17.2073 1.98002C17.2255 2.38195 17.5042 2.62449 17.8807 2.66376H17.8818ZM13.7733 11.5339C13.6084 13.2767 13.5663 15.03 13.6471 16.7786L13.6482 16.7775C13.6664 17.1597 13.3252 17.445 12.9748 17.4612C12.5994 17.4785 12.3174 17.1343 12.3014 16.7775C12.2559 15.7946 12.248 14.8094 12.281 13.8254C12.3981 10.2681 13.0146 6.72116 14.1146 3.34172C14.2328 2.97791 14.5718 2.77925 14.9426 2.86472C15.2839 2.94326 15.5227 3.36598 15.4124 3.70554C15.1076 4.63991 14.8403 5.58698 14.6105 6.54329C14.4057 7.39335 14.2317 8.25149 14.0884 9.11425C14.052 9.33022 14.0179 9.5462 13.986 9.76218C13.9701 9.86959 13.9542 9.97816 13.9394 10.0867C13.9365 10.1092 13.9334 10.1318 13.9303 10.1543C13.9272 10.1768 13.924 10.1993 13.9212 10.2219L13.9199 10.2308C13.9146 10.2682 13.9043 10.3401 13.9112 10.2922C13.8533 10.7038 13.8123 11.1194 13.7733 11.5339ZM10.5441 19.6568C10.3143 17.8042 10.2358 15.9332 10.3086 14.0679C10.345 13.1347 10.4201 12.2038 10.5315 11.2775C10.5401 11.2042 10.5497 11.1303 10.5593 11.0566L10.5671 10.9964L10.5668 11.0005C10.5671 10.9977 10.568 10.9897 10.5692 10.98L10.5725 10.9541L10.573 10.9502L10.5757 10.9348L10.5782 10.9206C10.5833 10.8848 10.5881 10.849 10.593 10.8132L10.593 10.813C10.5978 10.7773 10.6026 10.7415 10.6077 10.7058C10.6396 10.4817 10.6737 10.2577 10.7101 10.0336C10.7863 9.56815 10.8716 9.10501 10.9661 8.64417C11.1776 7.6151 11.4381 6.59642 11.7429 5.5916C11.8464 5.24973 11.6201 4.83047 11.272 4.75078C10.9069 4.66647 10.5543 4.86281 10.444 5.22894C9.89342 7.04339 9.49645 8.90173 9.24734 10.7832C8.9971 12.6739 8.89131 14.5807 8.95046 16.4887C8.98345 17.549 9.06535 18.6069 9.19616 19.6591C9.22004 19.8474 9.25644 20.0033 9.39294 20.143C9.5101 20.262 9.70119 20.3509 9.86953 20.3428C10.1971 20.3278 10.5895 20.0391 10.5429 19.6591L10.5441 19.6568ZM10.5692 10.98L10.5671 10.9964C10.568 10.9818 10.5702 10.9669 10.5727 10.952L10.5692 10.98ZM7.19877 26.9192C6.51515 28.0384 5.91116 29.2072 5.39702 30.4176L5.3993 30.4165C5.25029 30.7664 4.76801 30.8172 4.47795 30.6613C4.12989 30.4742 4.09804 30.0538 4.23681 29.7258C4.36534 29.422 4.49956 29.1206 4.63947 28.8226C5.77921 26.3937 7.29431 24.1588 9.03577 22.1365C10.8091 20.0783 12.8292 18.257 14.9813 16.6181C17.1436 14.9722 19.4515 13.5239 21.8448 12.2511C24.5394 10.8178 27.3672 9.60395 30.3018 8.78046C33.2114 7.9639 36.2473 7.5331 39.2684 7.66245C39.6461 7.67862 39.9248 7.96275 39.9418 8.34619C39.9578 8.70423 39.6211 9.04495 39.2684 9.02993C38.8988 9.01492 38.528 9.00683 38.1583 9.00683C37.4212 9.00799 36.683 9.04148 35.9482 9.10616C35.5808 9.1385 35.2145 9.17777 34.8494 9.22512C34.8036 9.23029 34.7587 9.23639 34.713 9.24258L34.697 9.24476L34.6795 9.24691L34.6629 9.24938C34.581 9.26093 34.5002 9.27248 34.4194 9.28518C34.2374 9.3129 34.0554 9.34178 33.8735 9.37296C32.4243 9.61897 30.9945 9.97585 29.592 10.4182C28.8823 10.6423 28.1793 10.8894 27.4832 11.1551C27.134 11.289 26.787 11.4265 26.4424 11.5697C26.3468 11.609 26.2513 11.6494 26.1558 11.6898L26.1294 11.7012L26.0841 11.7204L26.0839 11.7205L26.051 11.7344L26.0124 11.751L26.0242 11.7457L26.0471 11.7355L26.0011 11.7557C25.8395 11.825 25.678 11.8966 25.5165 11.9682C24.1527 12.5768 22.8184 13.2548 21.5138 13.9847C20.3604 14.6292 19.2297 15.3164 18.1275 16.0475C17.5781 16.4125 17.0344 16.789 16.4998 17.1771C16.2325 17.3711 15.9663 17.5674 15.7036 17.7673C15.5637 17.8724 15.426 17.9786 15.2884 18.086L15.2421 18.1221L15.2419 18.1222L15.2414 18.1226L15.2411 18.1229C15.221 18.1385 15.2007 18.1542 15.1804 18.1703L15.2068 18.1497L15.2069 18.1496L15.2071 18.1494C15.2337 18.1285 15.2582 18.1094 15.1872 18.1657L15.1246 18.2153C15.0876 18.2445 15.0507 18.2736 15.0143 18.3032C12.9623 19.9409 11.0536 21.7715 9.3918 23.817C9.28943 23.944 9.18706 24.0722 9.08582 24.2004C9.03467 24.2639 8.98466 24.3285 8.93465 24.3932L8.93454 24.3933C8.91065 24.4245 8.76164 24.6185 8.85719 24.4926C8.65927 24.7525 8.4659 25.0158 8.27708 25.2826C7.89945 25.8162 7.54001 26.3614 7.19877 26.9192ZM8.87198 29.5664C8.11443 30.5955 7.44673 31.6915 6.89279 32.8477V32.8511C6.72786 33.1941 6.27401 33.2577 5.97144 33.096C5.63362 32.9146 5.57674 32.4815 5.7303 32.1605C5.87135 31.8659 6.01922 31.5749 6.17505 31.2873C7.42285 28.9843 9.1245 26.9516 11.0161 25.1683C12.9441 23.3515 15.0757 21.7658 17.254 20.2758C19.6495 18.6369 22.0916 17.0523 24.6145 15.6225C27.2352 14.1372 29.9708 12.8309 32.8338 11.9012C35.6911 10.9726 38.6929 10.4263 41.6992 10.4632C42.0768 10.4679 42.3555 10.7728 42.3726 11.147C42.3885 11.5131 42.0518 11.8353 41.6992 11.8307C41.3375 11.8261 40.9758 11.8284 40.6152 11.8411C39.8838 11.8665 39.1524 11.9254 38.4256 12.0155L38.2629 12.0363C38.2459 12.0386 38.1105 12.0571 38.1901 12.0456C38.2698 12.034 38.1344 12.0536 38.1173 12.0559C38.0741 12.0617 38.0309 12.0675 37.9877 12.0744C37.8148 12.0998 37.6419 12.1276 37.469 12.1564C37.1016 12.2176 36.7353 12.2881 36.3713 12.3643C34.9427 12.6646 33.5368 13.0746 32.1616 13.5701C31.809 13.6972 31.4598 13.8288 31.1117 13.9663C30.9377 14.0356 30.7648 14.1049 30.5919 14.1765L30.5454 14.1958L30.4702 14.2273L30.4695 14.2276C30.429 14.2445 30.3886 14.2614 30.3484 14.2781C30.3168 14.2906 30.2859 14.3038 30.2546 14.3171L30.2267 14.3289C30.2202 14.3315 30.1923 14.3432 30.1689 14.3531L30.0538 14.4028C30.0334 14.4115 30.0132 14.4205 29.993 14.4294C29.9728 14.4384 29.9526 14.4473 29.9321 14.456L29.6899 14.5634C29.5283 14.635 29.368 14.7078 29.2076 14.7817C28.8663 14.9387 28.5274 15.1004 28.1907 15.2656C26.8621 15.917 25.5643 16.6308 24.288 17.3827C21.8652 18.809 19.4993 20.3509 17.1937 21.9644C16.6625 22.3363 16.1358 22.714 15.616 23.1009C15.3589 23.2915 15.1041 23.4843 14.8516 23.6795L14.6457 23.8401C14.6244 23.8561 14.6037 23.8727 14.5827 23.8895L14.5548 23.9117C14.4251 24.0133 14.2965 24.1161 14.1692 24.2189C13.175 25.0216 12.2138 25.8682 11.3084 26.7725C10.8557 27.2241 10.4178 27.6907 9.99807 28.1724C9.79219 28.408 9.58972 28.6482 9.39294 28.8931C9.28602 29.027 9.18023 29.161 9.07558 29.2961C9.06421 29.3111 9.05256 29.3262 9.0409 29.3412L9.02394 29.3631L9.00847 29.3839C8.963 29.4439 8.91753 29.5051 8.87205 29.5663L8.87198 29.5664ZM8.68316 35.4902C9.20867 34.3283 9.85588 33.2265 10.5986 32.1939C10.6885 32.0692 10.7806 31.9445 10.8728 31.822L10.879 31.8136L10.9251 31.7539C10.9518 31.7198 10.9786 31.6855 11.0053 31.6511C11.032 31.6167 11.0588 31.5824 11.0855 31.5483C11.2834 31.2988 11.4859 31.0528 11.694 30.8115C12.1103 30.3287 12.546 29.8621 12.9964 29.4128C13.4412 28.9693 13.9007 28.5419 14.3739 28.1296C14.6219 27.9125 14.8744 27.7011 15.1292 27.4921C15.2532 27.3904 15.3783 27.29 15.5034 27.1906C15.5199 27.1773 15.5367 27.164 15.5535 27.1507L15.5539 27.1504L15.5865 27.1246L15.6035 27.1109L15.6078 27.1075L15.6183 27.0994L15.6872 27.046L15.6875 27.0457C15.7402 27.0048 15.7927 26.964 15.8458 26.9238C16.9639 26.0668 18.1287 25.2769 19.3185 24.5273C21.6571 23.0535 24.0742 21.6976 26.5027 20.3821C27.7118 19.7272 28.9334 19.0943 30.1733 18.5018C30.7818 18.2108 31.3961 17.9313 32.0148 17.6633C32.0308 17.6564 32.1502 17.6056 32.0774 17.6367C32.0046 17.6679 32.124 17.6171 32.14 17.6102L32.3686 17.5132C32.5312 17.445 32.6928 17.378 32.8566 17.3122C33.1716 17.184 33.489 17.0604 33.8075 16.9391C35.0644 16.4645 36.3463 16.051 37.6487 15.7253C38.3027 15.5613 38.9625 15.4204 39.6256 15.3037C39.786 15.2748 39.9475 15.2483 40.109 15.2229L40.1094 15.2228C40.19 15.2101 40.2707 15.1974 40.3513 15.1859L40.473 15.1686C40.5356 15.1593 40.5435 15.1582 40.4764 15.1686C40.8211 15.1224 41.168 15.0831 41.5138 15.0508C41.8414 15.0207 42.169 14.9976 42.4977 14.9803C42.8492 14.9618 43.1881 14.6789 43.1711 14.2966C43.1552 13.942 42.8742 13.5932 42.4977 13.6128C39.7359 13.7572 37.0174 14.3647 34.4069 15.2737C31.7691 16.193 29.2315 17.3942 26.7597 18.7005C24.288 20.0067 21.8425 21.3835 19.4549 22.841C17.0674 24.2986 14.7458 25.904 12.6916 27.8224C10.8057 29.5826 9.13018 31.628 7.93698 33.9379C7.79025 34.2209 7.65262 34.5085 7.52067 34.7996C7.37394 35.1241 7.41944 35.5514 7.76181 35.7351C8.05755 35.8945 8.52619 35.8367 8.68316 35.4902ZM12.3003 34.5501C11.5609 35.5526 10.9251 36.6325 10.4258 37.7794L10.4246 37.7771C10.2722 38.1259 9.7956 38.179 9.50327 38.0219C9.15748 37.836 9.11995 37.4132 9.26213 37.0864C9.38611 36.8023 9.51806 36.5205 9.65797 36.2444C10.8205 33.953 12.5244 31.9583 14.4421 30.2848C16.5635 28.4322 18.9511 26.9331 21.3886 25.5517C23.7637 24.205 26.1774 22.9253 28.6536 21.7819C31.1583 20.6246 33.729 19.6013 36.3747 18.8275C39.0057 18.0583 41.714 17.5455 44.4485 17.3688C44.825 17.3445 45.1059 17.7014 45.1218 18.0525C45.1389 18.4383 44.7988 18.7132 44.4485 18.7363C44.1175 18.7571 43.7865 18.7836 43.4555 18.8148C43.1256 18.846 42.7957 18.8818 42.467 18.9234C42.4175 18.9295 42.3683 18.936 42.3193 18.9424C42.2759 18.9481 42.2327 18.9538 42.1895 18.9592L42.1614 18.9623L42.0609 18.9765C41.9074 18.9985 41.7538 19.0216 41.6002 19.0458C40.936 19.1498 40.2762 19.2722 39.6188 19.4131C38.313 19.6914 37.022 20.0402 35.7491 20.4445C34.4797 20.8476 33.2274 21.3061 31.9921 21.8062C31.6827 21.9321 31.3744 22.0603 31.0662 22.1908C31.0621 22.1928 30.9939 22.2219 30.9658 22.2339L30.9968 22.2208L30.9556 22.2387L30.9238 22.2526C30.9099 22.2586 30.8959 22.2646 30.8819 22.2705C30.8156 22.3002 30.7493 22.3287 30.6829 22.3572L30.6828 22.3573L30.6826 22.3574L30.6825 22.3574L30.6824 22.3575L30.6822 22.3575L30.6821 22.3576L30.6819 22.3577L30.6818 22.3577L30.6816 22.3578L30.6815 22.3579L30.6813 22.3579L30.6812 22.358L30.6811 22.358L30.6806 22.3583C30.5361 22.4206 30.3928 22.4841 30.2495 22.5477C29.6273 22.8249 29.0097 23.1101 28.3954 23.4047C26.1916 24.4603 24.0268 25.6096 21.9038 26.826C22.1291 26.7712 22.384 26.8408 22.5557 27.0035C22.5727 27.0191 22.5898 27.0344 22.6068 27.0497L22.644 27.0832C22.6776 27.1017 22.71 27.1267 22.7422 27.1515C22.7665 27.1703 22.7907 27.1889 22.815 27.2045C22.931 27.2784 23.0527 27.3408 23.1756 27.3997L23.1802 27.4019L23.2004 27.4097C23.2159 27.4158 23.2315 27.4222 23.2471 27.4285L23.2473 27.4286C23.3121 27.4528 23.3769 27.4771 23.4429 27.499C23.5748 27.5429 23.7079 27.5822 23.8422 27.6191C24.4041 27.7716 24.9751 27.8905 25.5461 27.9956C25.843 28.0499 26.1421 28.0996 26.4413 28.1446L26.4835 28.1513C26.5406 28.1604 26.5981 28.1696 26.6557 28.1768L26.6788 28.1796L23.1089 29.7613C23.7859 29.9468 24.4705 30.1044 25.1593 30.234C25.57 30.3102 25.9829 30.3806 26.3969 30.4349C26.2081 30.4095 26.4413 30.4396 26.4765 30.4442L26.5072 30.4481L26.5414 30.4523L26.5418 30.4523C26.5633 30.4549 26.5847 30.4575 26.6062 30.4603L26.634 30.4637C26.7201 30.4741 26.8054 30.4845 26.8917 30.4938C27.0987 30.5169 27.3069 30.5377 27.515 30.555C29.1632 30.6971 30.8239 30.6775 32.4687 30.4961C32.844 30.4546 33.1273 30.8426 33.1421 31.1799C33.15 31.3508 33.0624 31.5449 32.9453 31.6638C32.8099 31.8013 32.653 31.844 32.4687 31.8636C31.5337 31.9664 30.5941 32.0172 29.6535 32.0161C26.7916 32.0112 23.9233 31.5343 21.2109 30.6022L18.1429 31.9615L18.1833 31.9814C18.1918 31.9855 18.2053 31.9933 18.2209 32.0025L18.221 32.0025C18.2638 32.0275 18.3232 32.0621 18.3448 32.0554L18.262 32.0196L18.2868 32.0299C18.297 32.034 18.3072 32.0383 18.3175 32.0426L18.3344 32.0497L18.3482 32.0554C18.3755 32.0669 18.4039 32.0785 18.4312 32.0888C18.4938 32.1131 18.5564 32.1374 18.6201 32.1593C18.7531 32.2067 18.8885 32.2505 19.025 32.2921C19.2991 32.3753 19.5778 32.448 19.8553 32.5185C21.0121 32.813 22.1815 33.0475 23.361 33.2242L23.4556 33.2381C23.5666 33.2545 23.6782 33.271 23.7898 33.2854C23.6991 33.2741 23.7202 33.2768 23.7657 33.2825L23.8797 33.2969L24.0947 33.3247C24.3904 33.3605 24.6861 33.394 24.983 33.4228C25.5756 33.4817 26.1705 33.5245 26.7654 33.5533C27.9473 33.6099 29.1314 33.6088 30.312 33.5487C30.9069 33.5187 31.5018 33.4737 32.0945 33.4136C32.3913 33.3836 32.6871 33.3501 32.9828 33.312L33.2069 33.2831C33.2245 33.2808 33.2424 33.2782 33.2604 33.2756C33.2783 33.273 33.2962 33.2704 33.3138 33.2681C33.4571 33.2473 33.5993 33.2265 33.7426 33.2045C34.1149 33.1471 34.4444 33.2931 34.5688 33.6754C34.4594 33.2144 34.3341 32.7572 34.1931 32.3048C34.0281 31.7735 33.8416 31.2492 33.6346 30.7329L33.6126 30.6769L33.598 30.6392C33.5727 30.5742 33.5525 30.5221 33.597 30.6394C33.5821 30.5996 33.5651 30.5603 33.5481 30.5212L33.5479 30.5208L33.5348 30.4905L33.5254 30.4684C33.4708 30.3414 33.4151 30.2143 33.3582 30.0873C33.2467 29.8401 33.1307 29.5964 33.0101 29.355C32.521 28.3756 31.9545 27.4355 31.3164 26.5496C31.235 26.4372 31.1515 26.3248 31.068 26.2134C31.0496 26.191 31.0375 26.1759 31.0299 26.1663L31.0289 26.1651C31.0091 26.1401 31.0235 26.1561 31.0391 26.1756L31.057 26.1993L31.0675 26.2127L31.056 26.1974C31.0514 26.191 31.0452 26.1831 31.0391 26.1756L31.0218 26.1523C30.9797 26.0969 30.9377 26.0426 30.8944 25.9883C30.7272 25.777 30.5566 25.5702 30.3814 25.3658C30.0209 24.9454 29.6421 24.5423 29.2474 24.1554L29.244 24.1542C28.9733 23.8897 29.0006 23.4566 29.244 23.1875C29.4931 22.9126 29.9424 22.9392 30.196 23.1875C31.1196 24.093 31.9511 25.0944 32.6894 26.1604C33.9792 28.0222 34.9597 30.1139 35.5967 32.2956C36.236 34.4866 36.526 36.7965 36.4202 39.0787C36.402 39.4622 36.1256 39.7451 35.7469 39.7624C35.3954 39.7786 35.0576 39.4367 35.0735 39.0787C35.1031 38.4596 35.1031 37.8406 35.0735 37.2227C35.0587 36.9143 35.0371 36.6059 35.0075 36.2975C34.9927 36.1439 34.9768 35.9903 34.9586 35.8367C34.9566 35.8196 34.9557 35.797 34.9548 35.7723C34.9527 35.7142 34.9502 35.6445 34.9306 35.6077L34.9302 35.6046C34.9272 35.5785 34.9234 35.5524 34.9194 35.5256L34.9194 35.5255L34.9176 35.5133C34.8332 34.924 34.7234 34.339 34.5887 33.7601C34.6108 33.9101 34.5737 34.084 34.5025 34.2082C34.4263 34.3399 34.2556 34.4981 34.0998 34.5224C32.7007 34.7372 31.2925 34.8792 29.8787 34.9347C27.4172 35.0305 24.9523 34.8642 22.5204 34.4669C21.3318 34.2729 20.1499 34.0234 18.9886 33.7035C18.17 33.4784 17.3165 33.1722 16.6496 32.6231L14.8345 33.4273C15.3218 33.7172 15.8234 33.9821 16.3372 34.2221C16.4894 34.2924 16.6427 34.3605 16.796 34.4285L16.7967 34.4288L16.7991 34.4299L16.8217 34.4392C16.8455 34.4499 16.8699 34.46 16.894 34.4698L16.8941 34.4699L16.915 34.4785C16.9813 34.5063 17.0484 34.5335 17.115 34.5605L17.1721 34.5836C17.4917 34.7106 17.8159 34.8296 18.1423 34.9405C19.2934 35.3297 20.4764 35.6161 21.673 35.8182C21.8402 35.8471 22.0063 35.8737 22.1735 35.8979C22.207 35.9025 22.2403 35.9075 22.2736 35.9124C22.3057 35.9171 22.3378 35.9218 22.3701 35.9263L22.3921 35.9294L22.4139 35.9326L22.4453 35.9372C22.7547 35.9776 23.0641 36.0134 23.3747 36.0435C24.0458 36.1093 24.7191 36.152 25.3925 36.1763C28.1076 36.2721 30.8216 36.0642 33.5243 35.8148C33.8996 35.7801 34.1828 36.1555 34.1976 36.4985C34.2147 36.8912 33.8746 37.1499 33.5243 37.1823C31.9853 37.3243 30.444 37.4525 28.8993 37.5195C26.2149 37.635 23.5146 37.553 20.8665 37.0575C18.4017 36.5967 15.9811 35.7512 13.8393 34.4161L13.8381 34.4149C13.6798 34.3163 13.5766 34.1683 13.5336 34.0037L12.3003 34.5501ZM12.3003 34.5501L13.5818 33.5102C13.5866 33.4999 13.5917 33.4896 13.597 33.4794C13.6801 33.32 13.8338 33.2123 14.0043 33.1673L16.0088 31.5408C16.0321 31.4192 16.0903 31.3008 16.187 31.1937C16.3062 31.062 16.4956 30.9928 16.6821 30.9945L21.6135 26.9928C21.4876 27.0655 21.3618 27.1383 21.2362 27.2114C20.0373 27.909 18.8578 28.6401 17.7215 29.4394C17.4416 29.6357 17.1652 29.8367 16.8922 30.0411C16.7557 30.1439 16.6204 30.2478 16.485 30.3518L16.4687 30.3646C16.4527 30.3775 16.4364 30.3903 16.4202 30.4032C16.4034 30.4165 16.3866 30.4297 16.3701 30.443C16.3146 30.487 16.259 30.5318 16.2041 30.5761L16.17 30.6036C15.6752 31.0032 15.1929 31.4201 14.7288 31.8567C14.2772 32.2806 13.8416 32.7218 13.4264 33.1826C13.2114 33.4194 13.0032 33.6619 12.8008 33.9091C12.6961 34.0361 12.5938 34.1655 12.4925 34.2948L12.478 34.3136L12.4658 34.3294L12.4536 34.3454L12.4391 34.3641L12.4237 34.3845L12.4217 34.3872C12.4218 34.3871 12.418 34.3922 12.4123 34.3998L12.3697 34.4565C12.346 34.4875 12.3234 34.5184 12.3008 34.5494L12.3007 34.5495L12.3006 34.5496L12.3003 34.5501ZM34.9388 35.6698L34.9302 35.6069L34.9306 35.6077C34.9337 35.6284 34.9367 35.6491 34.9388 35.6698ZM34.9393 35.6739C34.9442 35.7125 34.9444 35.7108 34.9388 35.6698L34.9393 35.6739ZM5.34584 25.8878C5.17067 25.1948 5.01939 24.4961 4.89313 23.7916C4.82829 23.4301 4.77142 23.0686 4.72023 22.7047C4.71513 22.6726 4.71094 22.6395 4.70684 22.6072L4.70544 22.5962L4.70485 22.592L4.70089 22.5592L4.6736 22.3409C4.65085 22.1492 4.62923 21.9586 4.60876 21.7669C4.46203 20.3347 4.41767 18.891 4.47795 17.452C4.51094 16.6458 4.57805 15.8408 4.67701 15.0392C4.69635 14.8775 4.58715 14.665 4.48023 14.5553C4.36307 14.4363 4.17197 14.3474 4.00363 14.3555C3.8296 14.3636 3.64874 14.4213 3.52703 14.5553C3.3985 14.6985 3.353 14.8487 3.33025 15.0392C2.97195 17.9624 3.05498 20.9249 3.53954 23.8285C3.6749 24.6428 3.84552 25.4501 4.04799 26.2505C4.13558 26.597 4.53483 26.8407 4.87606 26.7275C5.22868 26.612 5.44025 26.2574 5.34697 25.8867L5.34584 25.8878ZM7.47631 21.2703C7.55138 21.7184 7.63669 22.1642 7.7311 22.6077L7.72996 22.6089C7.81072 22.9831 7.62304 23.3307 7.26019 23.4497C6.92805 23.5583 6.50719 23.3215 6.43212 22.9715C6.21145 21.9355 6.04652 20.888 5.92936 19.8346C5.52897 16.2208 5.79172 12.5283 6.68008 9.00568C6.77336 8.63494 7.15782 8.44783 7.50816 8.52868C7.8676 8.61184 8.06665 9.023 7.97907 9.36949C7.73451 10.3374 7.53773 11.3168 7.39214 12.3043C7.38668 12.342 7.38091 12.3798 7.37514 12.4176L7.37513 12.4177L7.37513 12.4177L7.37513 12.4177L7.37513 12.4177L7.37512 12.4177L7.37512 12.4177L7.37512 12.4177L7.37512 12.4177L7.37512 12.4177L7.37512 12.4178L7.37512 12.4178L7.37511 12.4178L7.37511 12.4178L7.37511 12.4178L7.37511 12.4178L7.37511 12.4178L7.37511 12.4178L7.37511 12.4178L7.3751 12.4179L7.3751 12.4179L7.3751 12.4179L7.3751 12.4179C7.36323 12.4956 7.35136 12.5733 7.34218 12.6511C7.35639 12.5253 7.33731 12.6885 7.33413 12.7166L7.31365 12.8783C7.28863 13.0758 7.26702 13.2744 7.24654 13.4731C7.20104 13.9247 7.16464 14.3774 7.13962 14.8302C7.09071 15.6999 7.08047 16.573 7.10663 17.4439C7.13393 18.3332 7.20104 19.2214 7.30683 20.1049L7.33413 20.3209C7.33571 20.3317 7.33922 20.361 7.34226 20.3871L7.33868 20.3555C7.34893 20.4435 7.36223 20.5323 7.37546 20.6206L7.37547 20.6206L7.38417 20.6789C7.41261 20.8764 7.44332 21.0739 7.47631 21.2703ZM33.5208 25.2422C32.8645 24.5053 32.1547 23.8204 31.3983 23.191L31.3972 23.1921C31.106 22.9507 31.1708 22.4761 31.3972 22.2254C31.5109 22.0995 31.7089 22.0256 31.8738 22.0256C32.0649 22.0256 32.2082 22.1076 32.3504 22.2254C33.2171 22.9473 34.0225 23.7431 34.7561 24.6024C36.0904 26.1639 37.2074 27.916 38.0434 29.8009C38.8999 31.732 39.4664 33.7532 39.7348 35.8529C39.7837 36.2329 39.3879 36.5216 39.0614 36.5366C38.8931 36.5447 38.702 36.4558 38.5848 36.3368C38.4472 36.1959 38.4119 36.0411 38.388 35.8529L38.384 35.8238L38.3822 35.8102C38.3801 35.7939 38.378 35.7778 38.3755 35.7616C38.3665 35.6937 38.3563 35.6257 38.3461 35.5578L38.346 35.5572C38.3255 35.4221 38.3039 35.2858 38.28 35.1507C38.2322 34.8723 38.1788 34.5951 38.1185 34.3191C38.0013 33.782 37.8637 33.2507 37.7044 32.7252C37.5611 32.2505 37.4007 31.7816 37.2233 31.3196C37.1766 31.1984 37.13 31.0782 37.0811 30.9581L37.081 30.958C37.0697 30.9303 37.0583 30.9026 37.047 30.8738C37.0046 30.7679 37.0536 30.8844 37.062 30.9081C37.0488 30.8692 37.0315 30.8313 37.0143 30.7937C37.0065 30.7765 36.9986 30.7593 36.9912 30.7422C36.8957 30.5169 36.7956 30.2952 36.6921 30.0746C36.2712 29.1783 35.7867 28.3133 35.2441 27.4875C35.1099 27.2842 34.9734 27.0832 34.8323 26.8846C34.7538 26.7725 34.6731 26.6617 34.5923 26.5519L34.4968 26.4237L34.491 26.4162L34.4638 26.381C34.1635 25.9906 33.8484 25.6106 33.5208 25.2422ZM34.2488 22.0256C34.8881 22.5823 35.4932 23.1783 36.0574 23.8112C36.3349 24.1219 36.6034 24.4418 36.8604 24.7687C36.8876 24.8032 36.9142 24.838 36.9407 24.8727C36.9794 24.9233 37.018 24.9738 37.0582 25.0234L37.0663 25.0343C37.1039 25.084 37.1403 25.1336 37.1766 25.1833C37.3006 25.3519 37.4212 25.5217 37.5395 25.6938C38.0229 26.3937 38.4631 27.1236 38.8578 27.879C39.0546 28.2567 39.2411 28.6401 39.4152 29.0293L39.4388 29.0825L39.439 29.0829L39.4391 29.0832L39.4391 29.0833C39.4721 29.1574 39.5048 29.2312 39.5369 29.3065L39.5915 29.4347L39.5958 29.4449L39.6024 29.4609L39.6064 29.4708L39.5966 29.4487L39.5864 29.4263C39.5768 29.4059 39.577 29.4077 39.6141 29.4891C39.6933 29.6823 39.7692 29.8767 39.8417 30.0711C40.1784 30.972 40.4525 31.896 40.6607 32.8361C40.7381 33.1861 41.1544 33.424 41.4888 33.3143C41.8494 33.1953 42.0416 32.8477 41.9585 32.4734C41.5764 30.7491 40.969 29.0755 40.1796 27.5002C39.3856 25.919 38.3892 24.4418 37.2381 23.1067C36.6079 22.3756 35.9266 21.6918 35.1997 21.0601C34.9324 20.8279 34.5059 20.7736 34.2477 21.0601C34.0168 21.3153 33.9622 21.7785 34.2477 22.0268L34.2488 22.0256ZM38.545 22.6505C38.0832 22.1111 37.5725 21.6168 37.0174 21.1779L37.0163 21.179C36.7194 20.9446 36.7945 20.4572 37.0163 20.2123C37.13 20.0876 37.3279 20.0125 37.4929 20.0125C37.6885 20.0125 37.8216 20.0957 37.9695 20.2123C38.6008 20.7113 39.1729 21.2818 39.6836 21.9067C41.5934 24.242 42.6752 27.1063 43.7057 29.9198C43.8365 30.279 43.5567 30.6544 43.2348 30.7606C42.8685 30.8819 42.5296 30.6174 42.4067 30.2836C42.128 29.5214 41.8471 28.7614 41.5457 28.0083L41.519 27.9417C41.488 27.8642 41.4569 27.7864 41.4251 27.7092L41.4074 27.6658L41.399 27.6452C41.3913 27.6268 41.3837 27.6083 41.3763 27.5898L41.3181 27.4528L41.3181 27.4527L41.318 27.4526C41.2691 27.3372 41.2203 27.2221 41.1703 27.1075C41.0292 26.7841 40.8836 26.4642 40.7312 26.1465C40.423 25.5032 40.0874 24.8738 39.7132 24.2686C39.5244 23.9637 39.3253 23.6634 39.1149 23.3723C39.0624 23.2998 39.0089 23.2273 38.9553 23.1556L38.9522 23.1517C38.9249 23.1171 38.8976 23.0813 38.8703 23.0466C38.7645 22.9126 38.6565 22.7798 38.545 22.6505ZM40.2203 20.9448L40.2103 20.9397L40.2285 20.9469L40.2273 20.948L40.2203 20.9448ZM39.7587 20.1061C39.6762 20.474 39.8532 20.7742 40.169 20.9216L40.1909 20.9353L40.2489 20.97L40.2623 20.9785L40.2683 20.9835C40.271 20.9858 40.2734 20.9879 40.2751 20.9896C40.357 21.0739 40.4366 21.1559 40.5117 21.2472C40.547 21.2911 40.5822 21.335 40.6163 21.3788L40.6303 21.3965L40.6538 21.4267L40.6702 21.4478L40.6922 21.4761L40.6937 21.4782L40.6945 21.4792L40.7271 21.5227L40.7506 21.5544L40.8666 21.7138C41.1441 22.1007 41.4023 22.5026 41.6389 22.9161C41.8755 23.3307 42.0916 23.7569 42.2861 24.1935C42.31 24.2466 42.3328 24.2986 42.3555 24.3517L42.3703 24.3858L42.3851 24.4199C42.434 24.5331 42.3828 24.4106 42.3749 24.3933C42.4158 24.48 42.4497 24.5716 42.4832 24.6621L42.4832 24.6621L42.4833 24.6622L42.4833 24.6622L42.4833 24.6623L42.4834 24.6625L42.4837 24.6632C42.4929 24.6881 42.5021 24.7129 42.5114 24.7375C42.5967 24.9604 42.6763 25.1868 42.7491 25.4143C42.9163 25.9317 43.0539 26.4595 43.1609 26.9931C43.2314 27.3442 43.6591 27.5787 43.9889 27.4713C44.3552 27.3512 44.5349 27.0058 44.4587 26.6305C44.0549 24.6208 43.22 22.6816 42.0302 21.0231C41.8403 20.7575 41.6446 20.4953 41.4353 20.2447C41.201 19.964 40.9257 19.7596 40.5868 19.6291C40.2569 19.502 39.8338 19.77 39.7587 20.1061ZM42.8594 20.8452C42.6854 20.6431 42.4943 20.4572 42.2896 20.2874C41.9984 20.046 42.0632 19.5713 42.2896 19.3207C42.4033 19.1948 42.6012 19.1209 42.7661 19.1209C42.9572 19.1209 43.1006 19.2029 43.2427 19.3207C44.1789 20.098 44.8443 21.2414 45.0707 22.446C45.1412 22.8225 44.9694 23.1656 44.5997 23.2868C44.2733 23.3943 43.8376 23.1621 43.7717 22.8098C43.7216 22.5384 43.6488 22.2728 43.5533 22.0141C43.5408 21.9794 43.5271 21.9448 43.5135 21.9101C43.4748 21.8073 43.5339 21.9448 43.5305 21.9494C43.5389 21.9409 43.4857 21.8398 43.4598 21.7906L43.4598 21.7905L43.4595 21.79C43.4538 21.7792 43.4495 21.7711 43.4475 21.7669C43.3895 21.6456 43.3258 21.5278 43.2587 21.4123C43.187 21.2899 43.1108 21.1721 43.0289 21.0566C43.0204 21.0445 43.0116 21.0326 43.0027 21.0208L42.9913 21.0054L42.9868 21C42.9689 20.9785 42.9514 20.9569 42.9339 20.9355C42.9093 20.9051 42.8847 20.875 42.8594 20.8452ZM24.9023 26.6686C26.6665 27.283 28.5763 27.5036 30.4303 27.2992C30.6146 27.2784 30.7716 27.2368 30.9069 27.0994C31.0241 26.9804 31.1117 26.7864 31.1037 26.6155C31.0889 26.2782 30.8057 25.8901 30.4303 25.9317C29.5397 26.0299 28.64 26.0322 27.7493 25.9317C27.697 25.9259 27.6447 25.9202 27.5924 25.9132L27.4877 25.8994L27.5628 25.9098C27.4736 25.9016 27.3838 25.8853 27.2943 25.8692L27.2943 25.8692L27.2942 25.8692L27.2942 25.8692L27.2942 25.8692L27.2941 25.8692L27.2941 25.8692L27.2941 25.8692L27.294 25.8692L27.294 25.8692L27.2939 25.8691L27.2939 25.8691L27.2939 25.8691L27.2938 25.8691L27.2238 25.8566C27.0077 25.8197 26.7916 25.777 26.5778 25.7284C26.1319 25.6268 25.6928 25.4998 25.2606 25.3496C24.9273 25.233 24.5098 25.4824 24.4325 25.8266C24.3472 26.2066 24.5462 26.5438 24.9034 26.6674L24.9023 26.6686ZM20.0908 39.5349C17.4257 39.0163 14.9062 37.9515 12.4129 36.897L12.414 36.8958C12.2423 36.8231 12.1126 36.7411 12.0114 36.5817C11.9124 36.4269 11.9033 36.2306 11.9431 36.055C11.9795 35.8922 12.1126 35.7293 12.2525 35.6461C12.3856 35.5664 12.6222 35.5133 12.7712 35.5768C14.1623 36.1659 15.5557 36.7538 16.981 37.2515C18.2481 37.6939 19.5425 38.0658 20.8643 38.2922C21.0316 38.321 21.1989 38.3467 21.3662 38.3712L21.3663 38.3712L21.3864 38.3742C21.396 38.3753 21.4059 38.3776 21.4144 38.3801C21.4231 38.3809 21.4319 38.3816 21.4405 38.3822L21.441 38.3822C21.451 38.3829 21.4607 38.3836 21.4694 38.3846C21.557 38.3961 21.6446 38.4065 21.7322 38.4158C22.0802 38.4539 22.4294 38.4804 22.7786 38.4966C23.4782 38.5289 24.1788 38.5197 24.8772 38.4827C25.5779 38.4446 26.2775 38.3799 26.9747 38.3003C27.3296 38.2598 27.6822 38.2148 28.036 38.1686C28.1384 38.1559 28.2407 38.142 28.3431 38.1282C28.3664 38.1253 28.3897 38.1221 28.4131 38.1189C28.4364 38.1157 28.4597 38.1126 28.483 38.1097C28.4591 38.112 28.342 38.1282 28.4716 38.1108C28.6377 38.0877 28.8049 38.0646 28.9721 38.0415C29.6842 37.9422 30.3962 37.8426 31.1083 37.743C31.8203 37.6434 32.5324 37.5438 33.2444 37.4444C33.4344 37.4179 33.5914 37.4213 33.7631 37.5137C33.9189 37.598 34.0202 37.7574 34.0725 37.9226C34.1248 38.0866 34.0884 38.3026 34.0043 38.4492C33.9292 38.5786 33.7563 38.7415 33.6016 38.7634C33.1168 38.8312 32.6321 38.8994 32.1474 38.9675L32.1444 38.968C31.021 39.1259 29.8976 39.2839 28.7731 39.4379C27.3137 39.6377 25.8486 39.8237 24.3745 39.8722C22.9367 39.9184 21.5035 39.8098 20.0908 39.5349ZM10.9137 39.1226C13.6368 40.5501 16.5897 41.5099 19.6222 41.9557C22.6933 42.4073 25.8043 42.3669 28.8595 41.8125C30.5202 41.5111 32.1525 41.0514 33.7267 40.4369C33.8951 40.3711 34.035 40.2856 34.1294 40.1228C34.2136 39.9761 34.25 39.7601 34.1976 39.5961C34.0941 39.2716 33.721 38.9817 33.3696 39.1191C31.975 39.6631 30.535 40.0858 29.0699 40.385C28.7082 40.4589 28.3442 40.5247 27.9791 40.5836C27.8051 40.6113 27.6299 40.6379 27.4547 40.6633C27.445 40.6648 27.4267 40.668 27.4083 40.6714C27.3859 40.6747 27.3631 40.6771 27.3404 40.6795L27.3399 40.6796L27.3215 40.6815L27.2989 40.6841C27.2035 40.6968 27.1081 40.7083 27.0127 40.7198L27.0126 40.7198L27.0126 40.7199L27.0125 40.7199L27.0124 40.7199L27.0124 40.7199L27.0123 40.7199L27.0123 40.7199C26.2775 40.8065 25.5404 40.8631 24.8022 40.8897C23.3087 40.944 21.8106 40.8758 20.3274 40.6864L20.258 40.6783L20.2574 40.6782L20.2558 40.678C20.1722 40.6683 20.0711 40.6565 20.2193 40.6726C20.1397 40.6639 20.06 40.6512 19.9804 40.6385L19.9327 40.631C19.7416 40.6021 19.5516 40.5721 19.3617 40.5397C18.9977 40.4774 18.6337 40.4081 18.272 40.3318C17.5486 40.1782 16.832 39.9957 16.1222 39.7832C15.3214 39.543 14.5309 39.2658 13.7551 38.9517C13.6653 38.9159 13.5765 38.8789 13.4878 38.8408C13.4657 38.8316 13.4435 38.822 13.4214 38.8125L13.3727 38.7917L13.3685 38.79L13.2933 38.7576C13.1011 38.6745 12.91 38.5878 12.72 38.5001C12.3401 38.3234 11.9647 38.1374 11.5928 37.9422C11.28 37.7782 10.8478 37.8498 10.6714 38.1871C10.5088 38.5001 10.5793 38.947 10.9126 39.1226H10.9137ZM13.3547 38.7842L13.3685 38.79C13.2948 38.7585 13.2902 38.7569 13.3547 38.7842ZM14.9208 15.0634C14.7181 15.0392 14.5146 15.0248 14.3102 15.0207V15.0219C13.9326 15.0138 13.6539 14.7147 13.6368 14.3382C13.6209 13.9743 13.9576 13.6475 14.3102 13.6544C14.9722 13.6683 15.6399 13.7757 16.2712 13.9824C16.6306 14.1002 16.8263 14.449 16.7421 14.8232C16.6636 15.172 16.2496 15.41 15.914 15.3002C15.5891 15.1938 15.2574 15.1149 14.9208 15.0634ZM14.5536 13.0123C14.888 13.033 15.2213 13.0631 15.5534 13.1035L15.6877 13.1208L15.6949 13.1217L15.6968 13.122C15.7358 13.1281 15.7748 13.1337 15.8137 13.1393L15.8138 13.1393L15.8139 13.1393L15.8139 13.1393L15.814 13.1393C15.8555 13.1453 15.8968 13.1512 15.9379 13.1578C16.1074 13.1844 16.2769 13.2144 16.4464 13.2467C17.114 13.3738 17.7726 13.5424 18.4199 13.7491C18.7554 13.8565 19.1694 13.6221 19.2479 13.2721C19.331 12.9002 19.1376 12.5457 18.7782 12.4313C17.4087 11.9936 15.9857 11.7349 14.5525 11.6448C14.1999 11.6228 13.8632 11.9751 13.8791 12.3285C13.8962 12.7177 14.1748 12.9892 14.5525 13.0123H14.5536ZM16.137 10.4344C15.8799 10.4043 15.6228 10.3801 15.3646 10.3605L15.3624 10.3616C14.9859 10.3327 14.706 10.0717 14.689 9.67787C14.673 9.32792 15.0097 8.96641 15.3624 8.99413C17.4712 9.15814 19.5505 9.62012 21.5217 10.3986C21.8743 10.5372 22.0802 10.8467 21.9926 11.2394C21.9176 11.5732 21.4933 11.8457 21.1646 11.7164C20.2171 11.3422 19.2434 11.0373 18.2515 10.8074C17.7647 10.6942 17.2733 10.5995 16.7796 10.5222C16.7092 10.5106 16.6387 10.5002 16.5682 10.4898L16.5681 10.4898L16.5405 10.4858C16.4801 10.4769 16.4332 10.47 16.5351 10.484C16.4031 10.4656 16.27 10.4494 16.137 10.4344ZM15.7662 7.89345C16.0767 7.8715 16.3883 7.86457 16.7 7.87497C16.8467 7.87959 16.9935 7.88883 17.1391 7.90038C17.2119 7.90615 17.2847 7.91308 17.3575 7.92117C17.3938 7.92463 17.4302 7.92925 17.4666 7.93387L17.4667 7.93387L17.5055 7.93806C18.0761 8.02596 18.6357 8.16077 19.1865 8.33811C19.4697 8.42935 19.7507 8.52983 20.0282 8.6384C20.159 8.68922 20.2898 8.74235 20.4195 8.79548L20.4636 8.81336L20.4636 8.81337L20.4636 8.81339L20.4637 8.8134C20.5141 8.83378 20.5647 8.85424 20.614 8.87748C20.5936 8.86824 20.4844 8.82089 20.5992 8.8717C20.6402 8.88903 20.68 8.90635 20.7198 8.92483C21.2601 9.16276 21.7924 9.41916 22.3248 9.67556L23.2749 10.1343L24.2266 10.5938C24.544 10.7474 24.9682 10.6942 25.148 10.3489C25.3061 10.044 25.2458 9.57739 24.9068 9.41338C24.6183 9.274 24.3303 9.1334 24.0422 8.99279L24.0418 8.99257L24.0413 8.99235L24.0409 8.99213C23.2053 8.5842 22.3695 8.17621 21.5206 7.79759C20.3956 7.29633 19.2366 6.84474 18.0183 6.64493C17.271 6.5225 16.5192 6.47399 15.7639 6.52712C15.4135 6.55138 15.0734 6.82395 15.0905 7.21086C15.1064 7.55966 15.3874 7.92117 15.7639 7.8946L15.7662 7.89345ZM17.6016 5.32353C17.2114 5.267 16.8089 5.25626 16.4156 5.27052L16.4145 5.26936C16.0369 5.28322 15.7571 4.94482 15.7411 4.58562C15.7241 4.20679 16.063 3.91459 16.4145 3.90188C17.42 3.86492 18.4244 4.05434 19.3947 4.30612C20.9632 4.71382 22.5307 5.17812 24.064 5.7071C25.612 6.24069 27.1362 6.87939 28.5422 7.73175C28.8652 7.9281 28.9551 8.33695 28.7833 8.66727C28.615 8.99067 28.1645 9.09577 27.8619 8.91213C27.4786 8.67998 27.0873 8.46285 26.6881 8.26073C26.489 8.16024 26.2877 8.06323 26.0852 7.96852C25.992 7.92463 25.8987 7.8819 25.8043 7.84032L25.7097 7.79869L25.6155 7.75716C25.6012 7.75081 25.5557 7.72798 25.533 7.71658L25.5329 7.71657L25.5198 7.71L25.587 7.74446C25.3149 7.60631 25.0185 7.49923 24.7271 7.39395C24.6457 7.36456 24.5648 7.33531 24.4848 7.30557C24.1299 7.1739 23.7716 7.04801 23.4122 6.92674C22.6592 6.6738 21.8994 6.44396 21.1373 6.22106C21.0013 6.18151 20.8654 6.14168 20.7295 6.10185L20.7293 6.1018L20.7292 6.10175C20.0793 5.91129 19.4288 5.72067 18.7713 5.55926C18.5586 5.50729 18.3448 5.45878 18.1298 5.41604C18.0411 5.39872 17.9512 5.38139 17.8614 5.36638C17.8079 5.35714 17.7533 5.3479 17.6998 5.33982C17.6849 5.33738 17.6274 5.32792 17.6016 5.32353Z" fill="#E14828"/>
<g filter="url(#filter0_d_0_683)">
<path fill-rule="evenodd" clip-rule="evenodd" d="M25.0046 31C26.2337 31 27.3917 30.7638 28.4786 30.2913C29.5656 29.8188 30.5229 29.1688 31.3505 28.3412C32.1781 27.5136 32.8266 26.5579 33.2959 25.474C33.7653 24.3901 34 23.2306 34 21.9954C34 20.7663 33.7638 19.6083 33.2913 18.5214C32.8188 17.4344 32.1688 16.4756 31.3412 15.6449C30.5136 14.8142 29.5564 14.1657 28.4694 13.6994C27.3824 13.2331 26.2244 13 24.9954 13C23.7663 13 22.6099 13.2331 21.526 13.6994C20.4421 14.1657 19.4848 14.8142 18.6541 15.6449C17.8235 16.4756 17.1734 17.4344 16.7041 18.5214C16.2347 19.6083 16 20.7663 16 21.9954C16 23.2306 16.2362 24.3901 16.7087 25.474C17.1812 26.5579 17.8312 27.5136 18.6588 28.3412C19.4864 29.1688 20.4421 29.8188 21.526 30.2913C22.6099 30.7638 23.7694 31 25.0046 31ZM25.0046 29.351C23.9856 29.351 23.0314 29.1611 22.142 28.7813C21.2527 28.4014 20.4714 27.8749 19.7983 27.2017C19.1251 26.5286 18.6001 25.7473 18.2234 24.858C17.8466 23.9686 17.6583 23.0144 17.6583 21.9954C17.6583 20.9763 17.8466 20.0221 18.2234 19.1328C18.6001 18.2434 19.1251 17.4622 19.7983 16.789C20.4714 16.1158 21.2512 15.5908 22.1374 15.2141C23.0237 14.8374 23.9763 14.649 24.9954 14.649C26.0144 14.649 26.9686 14.8374 27.858 15.2141C28.7473 15.5908 29.5286 16.1158 30.2017 16.789C30.8749 17.4622 31.4014 18.2434 31.7813 19.1328C32.1611 20.0221 32.351 20.9763 32.351 21.9954C32.3572 23.0144 32.1704 23.9686 31.7905 24.858C31.4107 25.7473 30.8857 26.5286 30.2156 27.2017C29.5455 27.8749 28.7643 28.4014 27.8718 28.7813C26.9794 29.1611 26.0237 29.351 25.0046 29.351ZM28.3675 22.4864L23.3556 25.4416C23.1518 25.5651 22.9527 25.5852 22.7581 25.5018C22.5636 25.4184 22.4663 25.2717 22.4663 25.0618V18.9568C22.4663 18.7406 22.5666 18.5939 22.7674 18.5167C22.9681 18.4395 23.1642 18.4565 23.3556 18.5677L28.3675 21.5322C28.5528 21.6433 28.6454 21.8024 28.6454 22.0093C28.6454 22.2162 28.5528 22.3752 28.3675 22.4864Z" fill="white"/>
</g>
<defs>
<filter id="filter0_d_0_683" x="16" y="13" width="19" height="19" filterUnits="userSpaceOnUse" color-interpolation-filters="sRGB">
<feFlood flood-opacity="0" result="BackgroundImageFix"/>
<feColorMatrix in="SourceAlpha" type="matrix" values="0 0 0 0 0 0 0 0 0 0 0 0 0 0 0 0 0 0 127 0" result="hardAlpha"/>
<feOffset dx="0.5" dy="0.5"/>
<feGaussianBlur stdDeviation="0.25"/>
<feColorMatrix type="matrix" values="0 0 0 0 1 0 0 0 0 0.541176 0 0 0 0 0 0 0 0 1 0"/>
<feBlend mode="normal" in2="BackgroundImageFix" result="effect1_dropShadow_0_683"/>
<feBlend mode="normal" in="SourceGraphic" in2="effect1_dropShadow_0_683" result="shape"/>
</filter>
</defs>
</svg>
